<svg id="Layer_1" data-name="Layer 1" xmlns="http://www.w3.org/2000/svg" viewBox="0 0 567.08 350.77"><defs><style>.cls-1{fill:#981a24;}.cls-2{fill:#415860;}.cls-3{fill:#231f20;}.cls-4{fill:#04791d;}</style></defs><title>TY ENG Logo  SVG Format</title><path class="cls-1" d="M256,304.06a352,352,0,0,0-48.7,34.64c-17.82,15.11-33.68,28.55-47.47,49.86-12.57,19.42-37.26,57.58-23,91.52,8.21,19.59,29,36.88,43.2,44,1.8.91,3.22,1.56,4.11,2,13.55,6.22,28,8.74,40.07,10.83,22.43,3.89,37.43,3.11,37.43,4,0,1.15-24.88,3.69-54.5,1.36-20.93-1.65-36.32-2.82-54.21-10.9-10.95-4.94-42.69-19.27-50.94-49.84-4.44-16.49-.51-31.95,1.7-40.62,3.45-13.57,9-23.06,14.84-33.06,8-13.63,15.59-22.68,24-32.59,0,0,14.22-17,29.12-30.21,2.44-2.17,4.87-4.21,4.87-4.21,1.16-1,6.58-5.52,13.52-10.58,11.64-8.48,26.35-17.56,26.35-17.56,9.1-5.62,22.2-13.78,39.63-24.89Z" transform="translate(-99.92 -192.44)"/><path class="cls-2" d="M345.59,238.64a495.17,495.17,0,0,1,82.66-21.48h0c30.59-3.95,56-7.22,85.81-7.16,0,0,20.62.05,41.92,2.25,12.54,1.3,23.72,3.27,23.72,3.27h0c6.17,1.36,11,2.84,12.76,3.41,9.47,3.12,33.71,14.86,42.12,39.37s-3.64,48.05-9.47,58.34a215,215,0,0,1-17,25.55c-4.75,6.13-8.75,10.62-12.13,14.4-10,11.15-18.17,18.9-22.34,22.87-8.82,8.4-21.41,20.59-39,38.18a395.19,395.19,0,0,0,87.65-67.39s84.41-84,21.2-132.82c0,0-52.81-45.61-193.63-13.6a436.84,436.84,0,0,0-104.29,34.81Z" transform="translate(-99.92 -192.44)"/><path class="cls-2" d="M184.75,237.35v58.52h11.33l.37-2.85a75.75,75.75,0,0,1,4.35-18.5,25.75,25.75,0,0,1,7-10.28,24.17,24.17,0,0,1,10.71-4.95,79.26,79.26,0,0,1,16-1.42h22V423.49c0,15.35-1.74,20.26-2.8,21.84-3.11,4.79-8.43,7.12-16.27,7.12h-10.3v12.7H321v-12.7H310.84c-7.27,0-12.56-1.95-15.72-5.78-1.25-1.53-3.35-6.57-3.35-23.18V257.87H318a49.53,49.53,0,0,1,14.51,1.92,24.71,24.71,0,0,1,10,5.83,29.67,29.67,0,0,1,6.64,10.57A68.4,68.4,0,0,1,353,293l.34,2.89h9.07V237.35Z" transform="translate(-99.92 -192.44)"/><path class="cls-2" d="M463.89,466.17H440.42V421.84h22.51v5.89H447v13h14.8v5.87H447v13.63h16.91Z" transform="translate(-99.92 -192.44)"/><path class="cls-2" d="M507.14,466.17H499.8l-20.27-32.68a22,22,0,0,1-1.64-3.12h-.16a55.4,55.4,0,0,1,.25,6.46v29.34H471.6V421.84h7.77L499,453.89q1.4,2.3,1.86,3.18H501a48.41,48.41,0,0,1-.3-6.35V421.84h6.4Z" transform="translate(-99.92 -192.44)"/><path class="cls-2" d="M550.52,463.17a28.22,28.22,0,0,1-14.63,3.75q-9.5,0-15.18-6T515,444.62q0-10.33,6.3-16.93t16.24-6.6a28.18,28.18,0,0,1,11.7,2.21v7a21.78,21.78,0,0,0-12.11-3.24,14.11,14.11,0,0,0-11,4.73c-2.85,3.14-4.27,7.28-4.27,12.39q0,7.9,3.92,12.32T536.46,461a15,15,0,0,0,7.47-1.71V448.14h-9V442.3h15.59Z" transform="translate(-99.92 -192.44)"/><path class="cls-1" d="M410.53,312v10.69h3.33a20.07,20.07,0,0,1,5.48.62,6.72,6.72,0,0,1,2.71,1.4,5.1,5.1,0,0,1,1.33,2.07,13.62,13.62,0,0,1,.7,3.27c0,1.92-1.06,5.79-5.49,13.43L395.13,384,370,341.34c-5-8.52-5.57-11.54-5.57-12.45a4.56,4.56,0,0,1,.62-2.51,6.59,6.59,0,0,1,2-2A9.39,9.39,0,0,1,370,323.1a15.18,15.18,0,0,1,3.61-.45h6.31V312H315.82v10.69h3.34a11.94,11.94,0,0,1,4.14.72,21,21,0,0,1,4,1.93,22.31,22.31,0,0,1,3,2.2c1,.9,1.47,1.38,1.71,1.63.71.86,1.77,2.34,3.15,4.39s3.26,5.09,5.4,8.72l36.34,61v34c0,10.7-1.26,13.48-1.67,14.11-1.73,2.76-4.76,4.1-9.25,4.1h-8.08v10.69h63.67V455.48h-7.69c-4.45,0-7.48-1.09-9.3-3.36-.47-.57-2-3.34-2-14.85v-36.1l31.9-55.25c2-3.41,3.83-6.41,5.43-8.93a49.85,49.85,0,0,1,4.21-5.81A27.6,27.6,0,0,1,448,327.5a28.06,28.06,0,0,1,4.15-2.73,24.76,24.76,0,0,1,3.78-1.63,8.35,8.35,0,0,1,2.19-.49H464V312Z" transform="translate(-99.92 -192.44)"/><path class="cls-3" d="M284.76,237.72" transform="translate(-99.92 -192.44)"/><path class="cls-4" d="M624.24,370.45" transform="translate(-99.92 -192.44)"/></svg>